{"title":"Captain.America.The.Winter.Soldier.2014.BRRip.720p.x264.AAC-PRiS","uid":10677383,"size":909629250,"categoryP":"video","categoryS":"hd___movies","magnet":"?xt=urn:btih:5e8a078549b375bfb3fb5c9702f6d3b1bdbee062&amp;dn=Captain.America.The.Winter.Soldier.2014.BRRip.720p.x264.AAC-PRiS&amp;tr=udp%3A%2F%2Ftracker.openbittorrent.com%3A80&amp;tr=udp%3A%2F%2Fopen.demonii.com%3A1337&amp;tr=udp%3A%2F%2Ftracker.coppersurfer.tk%3A6969&amp;tr=udp%3A%2F%2Fexodus.desync.com%3A6969","seeders":4,"leechers":2,"uploader":"ValidusVyto","files":-1,"time":1406939474,"description":" ___    ___       ___   _____    _   _  ___   \n(  _` |  _`  _ (  _`(_   _)_ ( ) ( )(  _` \n| |_) )| (_) )(_)| (_(_) | | (_)| `| || (_(_)\n| ,__/'| ,  / | |`__   | | | || , ` ||  _)_ \n| |    | |  | |( )_) | | | | || |` || (_( )\n(_)    (_) (_)(_)`____) (_) (_)(_) (_)(____/' \n\n\n\nCaptain.America.The.Winter.Soldier.2014.BRRip.720p.x264.AAC-PRiSTiNE\n\n\nGenre: Action | Adventure | Sci-Fi &lt;a href=&quot;\nhttp://www.imdb.com/title/tt1843866/&quot; rel=&quot;nofollow&quot; target=&quot;_NEW&quot;&gt;\nhttp://www.imdb.com/title/tt1843866/&lt;/a&gt;\n\n\nGeneral\nFormat                         : MPEG-4\nFile size                      : 860 MiB\nDuration                       : 2h 15mn\nOverall bit rate               : 885 Kbps\n\nVideo\nFormat                         : AVC\nBit rate                       : 800 Kbps\nWidth                          : 1 280 pixels\nHeight                         : 534 pixels\nDisplay aspect ratio           : 2.40:1\nFrame rate                     : 23.976 fps\nBit depth                      : 8 bits\nStream size                    : 777 MiB (90%)\nWriting library                : x264 core 142 r2431 ac76440\n\nAudio\nFormat                         : AAC\nBit rate                       : 80.0 Kbps\nChannel(s)                     : 2 channels\nChannel positions              : Front: L R\nSampling rate                  : 48.0 KHz\nStream size                    : 77.8 MiB (9%)\nLanguage                       : English\n\nSubtitle                       : Yes (English)\n &lt;a href=&quot;\nhttp://someimage.com/khplhV7&quot; rel=&quot;nofollow&quot; target=&quot;_NEW&quot;&gt;\nhttp://someimage.com/khplhV7&lt;/a&gt; &lt;a href=&quot;\nhttp://someimage.com/VhwOWgA&quot; rel=&quot;nofollow&quot; target=&quot;_NEW&quot;&gt;\nhttp://someimage.com/VhwOWgA&lt;/a&gt; &lt;a href=&quot;\nhttp://someimage.com/P4sVLuP&quot; rel=&quot;nofollow&quot; target=&quot;_NEW&quot;&gt;\nhttp://someimage.com/P4sVLuP&lt;/a&gt; &lt;a href=&quot;\nhttp://someimage.com/N85ZUYn&quot; rel=&quot;nofollow&quot; target=&quot;_NEW&quot;&gt;\nhttp://someimage.com/N85ZUYn&lt;/a&gt; &lt;a href=&quot;\nhttp://someimage.com/KxIogwA&quot; rel=&quot;nofollow&quot; target=&quot;_NEW&quot;&gt;\nhttp://someimage.com/KxIogwA&lt;/a&gt; &lt;a href=&quot;\nhttp://someimage.com/zYjSIQ2&quot; rel=&quot;nofollow&quot; target=&quot;_NEW&quot;&gt;\nhttp://someimage.com/zYjSIQ2&lt;/a&gt; &lt;a href=&quot;\nhttp://someimage.com/SFm7kCP&quot; rel=&quot;nofollow&quot; target=&quot;_NEW&quot;&gt;\nhttp://someimage.com/SFm7kCP&lt;/a&gt; &lt;a href=&quot;\nhttp://someimage.com/8VW9cin&quot; rel=&quot;nofollow&quot; target=&quot;_NEW&quot;&gt;\nhttp://someimage.com/8VW9cin&lt;/a&gt; &lt;a href=&quot;\nhttp://someimage.com/kWyCfTd&quot; rel=&quot;nofollow&quot; target=&quot;_NEW&quot;&gt;\nhttp://someimage.com/kWyCfTd&lt;/a&gt; &lt;a href=&quot;\nhttp://someimage.com/d491QIQ&quot; rel=&quot;nofollow&quot; target=&quot;_NEW&quot;&gt;\nhttp://someimage.com/d491QIQ&lt;/a&gt;\n\n----------------------------------------------------------------------------------------------------\n\n\nRecommend to you to use latest version of VLC player. Install K-Lite Codec Pack or shark007 codecs\nin case of any kind of problem in playback (For non-VLC Media Player users). Alternatively, install\nCore AVC codecs, the fastest decoder that there is coupled with Community Center Codec Pack and play\non Windows Media Player Classic. Check sample to be sure.\n\nEncoder Notes: Looking For Early Access To Anything You Can Provide DVDScr, R5, DVDR, BluRay, Direct\nAudio, Music Releases and Seedboxes. We require dedicated servers, so as to do more \nand fast releases of movies.","torrent":{"xt":"urn:btih:5e8a078549b375bfb3fb5c9702f6d3b1bdbee062","amp;dn":"Captain.America.The.Winter.Soldier.2014.BRRip.720p.x264.AAC-PRiS","amp;tr":["udp%3A%2F%2Ftracker.openbittorrent.com%3A80","udp%3A%2F%2Fopen.demonii.com%3A1337","udp%3A%2F%2Ftracker.coppersurfer.tk%3A6969","udp%3A%2F%2Fexodus.desync.com%3A6969"],"infoHash":"5e8a078549b375bfb3fb5c9702f6d3b1bdbee062","infoHashBuffer":{"type":"Buffer","data":[94,138,7,133,73,179,117,191,179,251,92,151,2,246,211,177,189,190,224,98]},"announce":[],"urlList":[]}}